<svg width="24" height="24" viewBox="0 0 24 24" xmlns="http://www.w3.org/2000/svg" class="social__icon"><path fill-rule="evenodd" clip-rule="evenodd" d="M4.237 11.422c4.832-2.105 8.054-3.493 9.666-4.164 4.603-1.914 5.56-2.247 6.183-2.258.137-.002.444.032.642.193.168.136.214.32.236.449.022.129.05.423.028.652-.25 2.621-1.329 8.981-1.878 11.916-.232 1.242-.69 1.659-1.133 1.7-.962.088-1.693-.636-2.625-1.247-1.459-.957-2.283-1.552-3.7-2.485-1.636-1.079-.575-1.671.358-2.64.244-.253 4.485-4.11 4.567-4.46.01-.044.02-.208-.077-.294s-.24-.056-.343-.033c-.147.033-2.477 1.574-6.992 4.621-.661.454-1.26.675-1.797.664-.592-.013-1.73-.335-2.577-.61-1.038-.337-1.862-.515-1.79-1.089.037-.298.448-.603 1.232-.915z"></path></svg>