<svg width="24" height="24" viewBox="0 0 24 24" xmlns="http://www.w3.org/2000/svg" class="social__icon"><path fill-rule="evenodd" clip-rule="evenodd" d="M20.576 7.738c.134-.416 0-.72-.59-.72h-1.964c-.496 0-.724.266-.858.55 0 0-1.01 2.422-2.421 3.993-.457.454-.667.606-.915.606-.133 0-.305-.152-.305-.568v-3.88c0-.492-.152-.719-.572-.719H9.863c-.305 0-.496.227-.496.454 0 .473.705.587.782 1.912v2.877c0 .624-.115.738-.362.738-.668 0-2.288-2.442-3.26-5.224C6.337 7.208 6.145 7 5.65 7H3.667C3.095 7 3 7.265 3 7.549c0 .51.667 3.085 3.107 6.491 1.62 2.328 3.927 3.577 6.005 3.577 1.258 0 1.411-.283 1.411-.757V15.1c0-.567.114-.662.515-.662.286 0 .8.151 1.963 1.268 1.335 1.325 1.563 1.93 2.307 1.93h1.963c.572 0 .84-.284.687-.832-.172-.55-.82-1.344-1.659-2.29-.457-.53-1.144-1.117-1.353-1.4-.286-.38-.21-.53 0-.872-.02 0 2.383-3.368 2.63-4.504z"></path></svg>