<?xml version="1.0" encoding="utf-8"?>
<svg xmlns="http://www.w3.org/2000/svg" width="32" height="32" fill="white" viewBox="0 0 24 24" class="header-profile__icon"><path d="M16.5 6.5a4.5 4.5 0 11-9 0 4.5 4.5 0 019 0zm-2 0a2.5 2.5 0 10-5 0 2.5 2.5 0 005 0zm-11 12.804A5.952 5.952 0 016.39 14.2a10.904 10.904 0 0111.22 0 5.952 5.952 0 012.89 5.104v1.697a1 1 0 01-1 1h-15a1 1 0 01-1-1v-1.697zm15 0a3.952 3.952 0 00-1.919-3.389 8.904 8.904 0 00-9.162 0 3.955 3.955 0 00-1.919 3.39V20h13v-.696z"></path></svg>